<?xml version="1.0" encoding="utf-8"?>
<!-- Generator: Adobe Illustrator 16.0.0, SVG Export Plug-In . SVG Version: 6.00 Build 0)  -->
<!DOCTYPE svg PUBLIC "-//W3C//DTD SVG 1.1//EN" "http://www.w3.org/Graphics/SVG/1.1/DTD/svg11.dtd">
<svg version="1.1" id="Layer_1" xmlns="http://www.w3.org/2000/svg" xmlns:xlink="http://www.w3.org/1999/xlink" x="0px" y="0px"
	 viewBox="0 0 48 45.588" enable-background="new 0 0 48 45.588" xml:space="preserve">
<g>
	<defs>
		<rect id="SVGID_1_" width="48" height="45.588"/>
	</defs>
	<clipPath id="SVGID_2_">
		<use xlink:href="#SVGID_1_"  overflow="visible"/>
	</clipPath>
	
		<path clip-path="url(#SVGID_2_)" fill="none" stroke="#FFFFFF" stroke-width="2" stroke-linecap="round" stroke-linejoin="round" d="
		M29,29l6.293,6.293c0.63,0.63,1.707,0.185,1.707-0.707V29h8c1.104,0,2-0.896,2-2V3c0-1.104-0.896-2-2-2H16c-1.104,0-2,0.896-2,2v24
		c0,1.104,0.896,2,2,2H29z"/>
	
		<path clip-path="url(#SVGID_2_)" fill="none" stroke="#FFFFFF" stroke-width="2" stroke-linecap="round" stroke-linejoin="round" d="
		M25,33v4c0,1.104-0.896,2-2,2H13l-5.293,5.293C7.077,44.923,6,44.478,6,43.586V39H3c-1.104,0-2-0.896-2-2V20c0-1.104,0.896-2,2-2h7
		"/>
	
		<line clip-path="url(#SVGID_2_)" fill="none" stroke="#FFFFFF" stroke-width="2" stroke-linecap="round" stroke-linejoin="round" x1="23" y1="14" x2="24" y2="14"/>
	
		<line clip-path="url(#SVGID_2_)" fill="none" stroke="#FFFFFF" stroke-width="2" stroke-linecap="round" stroke-linejoin="round" x1="29" y1="14" x2="30" y2="14"/>
	
		<line clip-path="url(#SVGID_2_)" fill="none" stroke="#FFFFFF" stroke-width="2" stroke-linecap="round" stroke-linejoin="round" x1="35" y1="14" x2="36" y2="14"/>
</g>
</svg>
