<?xml version="1.0" encoding="utf-8"?>
<!-- Generator: Adobe Illustrator 23.0.3, SVG Export Plug-In . SVG Version: 6.00 Build 0)  -->
<svg version="1.1" id="Layer_1" xmlns="http://www.w3.org/2000/svg" xmlns:xlink="http://www.w3.org/1999/xlink" x="0px" y="0px"
	 viewBox="0 0 613 475.1" style="enable-background:new 0 0 613 475.1;" xml:space="preserve">
<style type="text/css">
	.st0{fill:none;stroke:#FFFFFF;stroke-width:2;stroke-miterlimit:10;}
	.st1{fill:none;stroke:#FFDA68;stroke-width:2;stroke-miterlimit:10;}
	.st2{fill:none;stroke:#FB667F;stroke-width:2;stroke-miterlimit:10;}
	.st3{fill:#1E222F;}
	.st4{fill:none;stroke:#FFFFFF;stroke-miterlimit:10;}
	.st5{fill:none;stroke:#FFDA68;stroke-miterlimit:10;}
	.st6{fill:none;stroke:#FF687D;stroke-miterlimit:10;}



	.st4{
  animation: st4-banner-server linear 3s;
  animation-iteration-count: infinite;
  transform-origin: 50% 50%;
  -webkit-animation: st4-banner-server linear 3s;
  -webkit-animation-iteration-count: infinite;
  -webkit-transform-origin: 50% 50%;
  -moz-animation: st4-banner-server linear 3s;
  -moz-animation-iteration-count: infinite;
  -moz-transform-origin: 50% 50%;
  -o-animation: st4-banner-server linear 3s;
  -o-animation-iteration-count: infinite;
  -o-transform-origin: 50% 50%;
  -ms-animation: st4-banner-server linear 3s;
  -ms-animation-iteration-count: infinite;
  -ms-transform-origin: 50% 50%;
}

@keyframes st4-banner-server{
  0% {
    stroke:#FFFFFF;
  }
   25% {
    stroke:#cb6686;
  }
  50% {
    stroke:#745984;
  }
  
  75% {
   stroke:#ff687d;
  }
}

@-moz-keyframes st4-banner-server{
  0% {
    stroke:#FFFFFF;
  }
   25% {
    stroke:#cb6686;
  }
  50% {
    stroke:#745984;
  }
  
  75% {
   stroke:#ff687d;
  }
}

@-webkit-keyframes st4-banner-server {
  0% {
    stroke:#FFFFFF;
  }
   25% {
    stroke:#cb6686;
  }
  50% {
    stroke:#745984;
  }
  
  75% {
   stroke:#ff687d;
  }
}

@-o-keyframes st4-banner-server {
  0% {
    stroke:#FFFFFF;
  }
   25% {
    stroke:#cb6686;
  }
  50% {
    stroke:#745984;
  }
  
  75% {
   stroke:#ff687d;
  }
}

@-ms-keyframes st4-banner-server {
  0% {
    stroke:#FFFFFF;
  }
   25% {
    stroke:#cb6686;
  }
  50% {
    stroke:#745984;
  }
  
  75% {
   stroke:#ff687d;
  }
}


.st5{
  animation: st5-banner-server linear 3s;
  animation-iteration-count: infinite;
  transform-origin: 50% 50%;
  -webkit-animation: st5-banner-server linear 3s;
  -webkit-animation-iteration-count: infinite;
  -webkit-transform-origin: 50% 50%;
  -moz-animation: st5-banner-server linear 3s;
  -moz-animation-iteration-count: infinite;
  -moz-transform-origin: 50% 50%;
  -o-animation: st5-banner-server linear 3s;
  -o-animation-iteration-count: infinite;
  -o-transform-origin: 50% 50%;
  -ms-animation: st5-banner-server linear 3s;
  -ms-animation-iteration-count: infinite;
  -ms-transform-origin: 50% 50%;
}


@keyframes st5-banner-server{
  0% {
    stroke:#FFFFFF;
  }
   25% {
    stroke:#ffda68;
  }
  50% {
    stroke:#ff687d;
  }
  
  75% {
   stroke:#745984;
  }
}

@keyframes st5-banner-server{
  0% {
    stroke:#FFFFFF;
  }
   25% {
    stroke:#ffda68;
  }
  50% {
    stroke:#ff687d;
  }
  
  75% {
   stroke:#745984;
  }
}

@keyframes st5-banner-server{
  0% {
    stroke:#FFFFFF;
  }
   25% {
    stroke:#ffda68;
  }
  50% {
    stroke:#ff687d;
  }
  
  75% {
   stroke:#745984;
  }
}

@keyframes st5-banner-server{
  0% {
    stroke:#FFFFFF;
  }
   25% {
    stroke:#ffda68;
  }
  50% {
    stroke:#ff687d;
  }
  
  75% {
   stroke:#745984;
  }
}

@keyframes st5-banner-server{
  0% {
    stroke:#FFFFFF;
  }
   25% {
    stroke:#ffda68;
  }
  50% {
    stroke:#ff687d;
  }
  
  75% {
   stroke:#745984;
  }
}




</style>
<g>
	<g>
		<line class="st0" x1="56.5" y1="113.7" x2="116.5" y2="113.7"/>
		<line class="st0" x1="37.5" y1="113.7" x2="50.5" y2="113.7"/>
		<line class="st0" x1="125.5" y1="81.7" x2="178.5" y2="81.7"/>
		<line class="st0" x1="114.5" y1="81.7" x2="119.5" y2="81.7"/>
		<line class="st0" x1="437.5" y1="101.7" x2="498.5" y2="101.7"/>
		<line class="st0" x1="504.5" y1="101.7" x2="516.5" y2="101.7"/>
		<line class="st1" x1="511" y1="168.7" x2="550" y2="168.7"/>
		<line class="st1" x1="556" y1="168.7" x2="572" y2="168.7"/>
		<line class="st0" x1="538" y1="235.7" x2="567" y2="235.7"/>
		<line class="st0" x1="515" y1="261.7" x2="551" y2="261.7"/>
		<line class="st0" x1="529" y1="272.7" x2="541" y2="272.7"/>
		<line class="st0" x1="573" y1="235.7" x2="584" y2="235.7"/>
		<line class="st0" x1="514" y1="354.7" x2="538" y2="354.7"/>
		<line class="st0" x1="544" y1="354.7" x2="575" y2="354.7"/>
		<line class="st1" x1="551" y1="294.7" x2="590" y2="294.7"/>
		<line class="st1" x1="596" y1="294.7" x2="613" y2="294.7"/>
		<line class="st2" x1="511" y1="176.7" x2="530" y2="176.7"/>
		<line class="st1" x1="29" y1="186.7" x2="63" y2="186.7"/>
		<line class="st1" x1="67" y1="186.7" x2="79" y2="186.7"/>
		<line class="st0" x1="64" y1="257.7" x2="70" y2="257.7"/>
		<line class="st0" x1="77" y1="257.7" x2="101" y2="257.7"/>
		<line class="st1" x1="0" y1="326.7" x2="6" y2="326.7"/>
		<line class="st1" x1="13" y1="326.7" x2="64" y2="326.7"/>
		<line class="st0" x1="60" y1="370.7" x2="91" y2="370.7"/>
		<line class="st0" x1="45" y1="370.7" x2="54" y2="370.7"/>
		<line class="st2" x1="40" y1="198.7" x2="52" y2="198.7"/>
		<line class="st0" x1="347.2" y1="13" x2="347.2" y2="23"/>
		<line class="st0" x1="347.2" y1="29" x2="347.2" y2="39"/>
		<line class="st0" x1="360.2" y1="26" x2="350.2" y2="26"/>
		<line class="st0" x1="344.2" y1="26" x2="334.2" y2="26"/>
		<line class="st0" x1="268.2" y1="0" x2="268.2" y2="5"/>
		<line class="st0" x1="268.2" y1="9" x2="268.2" y2="14"/>
		<line class="st0" x1="275.2" y1="7" x2="270.2" y2="7"/>
		<line class="st0" x1="266.2" y1="7" x2="261.2" y2="7"/>
		<line class="st0" x1="258.2" y1="51" x2="258.2" y2="54"/>
		<line class="st0" x1="258.2" y1="56" x2="258.2" y2="59"/>
		<line class="st0" x1="262.2" y1="55" x2="259.2" y2="55"/>
		<line class="st0" x1="257.2" y1="55" x2="254.2" y2="55"/>
		<line class="st1" x1="391.4" y1="40.8" x2="391.4" y2="51.8"/>
		<line class="st1" x1="396.9" y1="46.3" x2="385.9" y2="46.3"/>
		<line class="st2" x1="220.9" y1="60.3" x2="216.1" y2="65.1"/>
		<line class="st2" x1="212.3" y1="68.9" x2="207.5" y2="73.7"/>
		<line class="st2" x1="220.9" y1="73.7" x2="216.1" y2="68.9"/>
		<line class="st2" x1="212.3" y1="65.1" x2="207.5" y2="60.3"/>
		<circle class="st0" cx="425.5" cy="79.1" r="1.9"/>
		<circle class="st0" cx="369.5" cy="67.1" r="1.5"/>
	</g>
	<g>
		<polygon class="st3" points="375.7,92.9 374.6,92.9 306.9,53.9 239.2,92.9 238.1,92.9 238.1,268.9 306.9,308.5 375.7,268.9 		"/>
		<polygon class="st1" points="306.9,131.9 239.2,92.9 306.9,53.9 374.6,92.9 		"/>
		
			<ellipse transform="matrix(0.9989 -4.609304e-02 4.609304e-02 0.9989 -3.8401 12.9929)" class="st1" cx="279.8" cy="89.8" rx="11" ry="6.4"/>
		
			<ellipse transform="matrix(0.9989 -4.609304e-02 4.609304e-02 0.9989 -3.1536 14.103)" class="st1" cx="304.2" cy="75.4" rx="11" ry="6.4"/>
		<polyline class="st1" points="375.7,92.9 375.7,268.9 306.9,308.5 238.1,268.9 238.1,92.9 		"/>
		<line class="st1" x1="306.9" y1="131.9" x2="306.9" y2="308.5"/>
		<polygon class="st4" points="370.4,114 312.2,147.5 312.2,160.8 370.4,127.3 		"/>
		<line class="st1" x1="375.9" y1="98.6" x2="306.8" y2="138.4"/>
		<line class="st1" x1="375.9" y1="104.5" x2="306.8" y2="144.3"/>
		<line class="st4" x1="324.3" y1="140.8" x2="324.3" y2="154.1"/>
		<polygon class="st5" points="357,130.7 367.2,124.9 367.2,120.6 357,126.5 		"/>
		<polygon class="st4" points="343.2,138.7 353.4,132.8 353.4,128.6 343.2,134.4 		"/>
		<polygon class="st5" points="329.4,146.6 339.6,140.8 339.6,136.5 329.4,142.4 		"/>
		<polygon class="st5" points="370.4,135.2 312.2,168.7 312.2,182 370.4,148.5 		"/>
		<line class="st5" x1="324.3" y1="162" x2="324.3" y2="175.4"/>
		<polygon class="st5" points="357,152 367.2,146.1 367.2,141.8 357,147.7 		"/>
		<polygon class="st6" points="343.2,159.9 353.4,154 353.4,149.8 343.2,155.7 		"/>
		<polygon class="st5" points="329.4,167.9 339.6,162 339.6,157.8 329.4,163.6 		"/>
		<polygon class="st4" points="370.4,156.5 312.2,189.9 312.2,203.2 370.4,169.7 		"/>
		<line class="st4" x1="324.3" y1="183.3" x2="324.3" y2="196.6"/>
		<polygon class="st4" points="357,173.2 367.2,167.3 367.2,163.1 357,168.9 		"/>
		<polygon class="st5" points="343.2,181.1 353.4,175.3 353.4,171 343.2,176.9 		"/>
		<polygon class="st4" points="329.4,189.1 339.6,183.2 339.6,179 329.4,184.9 		"/>
		<polygon class="st5" points="370.4,177.7 312.2,211.2 312.2,224.4 370.4,191 		"/>
		<line class="st5" x1="324.3" y1="204.5" x2="324.3" y2="217.8"/>
		<polygon class="st6" points="357,194.4 367.2,188.5 367.2,184.3 357,190.2 		"/>
		<polygon class="st5" points="343.2,202.4 353.4,196.5 353.4,192.3 343.2,198.1 		"/>
		<polygon class="st6" points="329.4,210.3 339.6,204.5 339.6,200.2 329.4,206.1 		"/>
		<polygon class="st4" points="370.4,198.9 312.2,232.4 312.2,245.7 370.4,212.2 		"/>
		<line class="st4" x1="324.3" y1="225.7" x2="324.3" y2="239.1"/>
		<polygon class="st5" points="357,215.6 367.2,209.8 367.2,205.5 357,211.4 		"/>
		<polygon class="st4" points="343.2,223.6 353.4,217.7 353.4,213.5 343.2,219.4 		"/>
		<polygon class="st5" points="329.4,231.6 339.6,225.7 339.6,221.4 329.4,227.3 		"/>
		<polygon class="st5" points="370.4,220.1 312.2,253.6 312.2,266.9 370.4,233.4 		"/>
		<line class="st5" x1="324.3" y1="247" x2="324.3" y2="260.3"/>
		<polygon class="st5" points="357,236.9 367.2,231 367.2,226.8 357,232.6 		"/>
		<polygon class="st6" points="343.2,244.8 353.4,239 353.4,234.7 343.2,240.6 		"/>
		<polygon class="st5" points="329.4,252.8 339.6,246.9 339.6,242.7 329.4,248.6 		"/>
		<polygon class="st4" points="370.4,241.4 312.2,274.9 312.2,288.1 370.4,254.6 		"/>
		<line class="st4" x1="324.3" y1="268.2" x2="324.3" y2="281.5"/>
		<polygon class="st4" points="357,258.1 367.2,252.2 367.2,248 357,253.9 		"/>
		<polygon class="st5" points="343.2,266.1 353.4,260.2 353.4,255.9 343.2,261.8 		"/>
		<polygon class="st4" points="329.4,274 339.6,268.2 339.6,263.9 329.4,269.8 		"/>
		<line class="st1" x1="311.1" y1="296.8" x2="311.1" y2="306.1"/>
		<line class="st1" x1="316.6" y1="293.6" x2="316.6" y2="302.9"/>
		<line class="st1" x1="322.1" y1="290.4" x2="322.1" y2="299.7"/>
		<line class="st1" x1="327.6" y1="287.3" x2="327.6" y2="296.6"/>
		<line class="st1" x1="333.1" y1="284.1" x2="333.1" y2="293.4"/>
		<line class="st1" x1="338.5" y1="281" x2="338.5" y2="290.2"/>
		<line class="st1" x1="344" y1="277.8" x2="344" y2="287.1"/>
		<line class="st1" x1="349.5" y1="274.7" x2="349.5" y2="284"/>
		<line class="st1" x1="355" y1="271.6" x2="355" y2="280.8"/>
		<line class="st1" x1="360.5" y1="268.2" x2="360.5" y2="277.6"/>
		<line class="st1" x1="365.9" y1="265.2" x2="365.9" y2="274.4"/>
		<line class="st1" x1="371.4" y1="262" x2="371.4" y2="271.3"/>
		<line class="st1" x1="367.7" y1="103.1" x2="367.7" y2="109"/>
		<line class="st1" x1="315.9" y1="132.8" x2="315.9" y2="139.3"/>
		<line class="st1" x1="375.9" y1="259.5" x2="306.8" y2="299.3"/>
	</g>
	<g>
		<polygon class="st3" points="249.6,178.7 248.5,178.7 180.8,139.7 113.1,178.7 112,178.7 112,354.7 180.8,394.3 249.6,354.7 		"/>
		<polygon class="st0" points="180.8,217.7 113.1,178.7 180.8,139.7 248.5,178.7 		"/>
		
			<ellipse transform="matrix(0.9989 -4.609304e-02 4.609304e-02 0.9989 -7.9303 7.2719)" class="st0" cx="153.7" cy="175.6" rx="11" ry="6.4"/>
		
			<ellipse transform="matrix(0.9989 -4.609304e-02 4.609304e-02 0.9989 -7.2438 8.3821)" class="st0" cx="178.1" cy="161.3" rx="11" ry="6.4"/>
		<polyline class="st0" points="249.6,178.7 249.6,354.7 180.8,394.3 112,354.7 112,178.7 		"/>
		<line class="st0" x1="180.8" y1="217.7" x2="180.8" y2="394.3"/>
		<polygon class="st4" points="244.3,199.8 186.1,233.3 186.1,246.6 244.3,213.1 		"/>
		<line class="st0" x1="249.8" y1="184.5" x2="180.7" y2="224.3"/>
		<line class="st0" x1="249.8" y1="190.3" x2="180.7" y2="230.1"/>
		<line class="st4" x1="198.2" y1="226.6" x2="198.2" y2="240"/>
		<polygon class="st5" points="230.9,216.6 241.1,210.7 241.1,206.4 230.9,212.3 		"/>
		<polygon class="st4" points="217.1,224.5 227.3,218.6 227.3,214.4 217.1,220.3 		"/>
		<polygon class="st5" points="203.3,232.5 213.5,226.6 213.5,222.4 203.3,228.2 		"/>
		<polygon class="st5" points="244.3,221.1 186.1,254.5 186.1,267.8 244.3,234.3 		"/>
		<line class="st5" x1="198.2" y1="247.9" x2="198.2" y2="261.2"/>
		<polygon class="st5" points="230.9,237.8 241.1,231.9 241.1,227.7 230.9,233.5 		"/>
		<polygon class="st6" points="217.1,245.7 227.3,239.9 227.3,235.6 217.1,241.5 		"/>
		<polygon class="st5" points="203.3,253.7 213.5,247.8 213.5,243.6 203.3,249.5 		"/>
		<polygon class="st4" points="244.3,242.3 186.1,275.8 186.1,289 244.3,255.6 		"/>
		<line class="st4" x1="198.2" y1="269.1" x2="198.2" y2="282.4"/>
		<polygon class="st4" points="230.9,259 241.1,253.1 241.1,248.9 230.9,254.8 		"/>
		<polygon class="st5" points="217.1,267 227.3,261.1 227.3,256.9 217.1,262.7 		"/>
		<polygon class="st4" points="203.3,274.9 213.5,269.1 213.5,264.8 203.3,270.7 		"/>
		<polygon class="st5" points="244.3,263.5 186.1,297 186.1,310.3 244.3,276.8 		"/>
		<line class="st5" x1="198.2" y1="290.3" x2="198.2" y2="303.7"/>
		<polygon class="st6" points="230.9,280.2 241.1,274.4 241.1,270.1 230.9,276 		"/>
		<polygon class="st5" points="217.1,288.2 227.3,282.3 227.3,278.1 217.1,284 		"/>
		<polygon class="st6" points="203.3,296.2 213.5,290.3 213.5,286 203.3,291.9 		"/>
		<polygon class="st4" points="244.3,284.7 186.1,318.2 186.1,331.5 244.3,298 		"/>
		<line class="st4" x1="198.2" y1="311.6" x2="198.2" y2="324.9"/>
		<polygon class="st5" points="230.9,301.5 241.1,295.6 241.1,291.4 230.9,297.2 		"/>
		<polygon class="st4" points="217.1,309.4 227.3,303.6 227.3,299.3 217.1,305.2 		"/>
		<polygon class="st5" points="203.3,317.4 213.5,311.5 213.5,307.3 203.3,313.2 		"/>
		<polygon class="st5" points="244.3,306 186.1,339.5 186.1,352.7 244.3,319.2 		"/>
		<line class="st5" x1="198.2" y1="332.8" x2="198.2" y2="346.1"/>
		<polygon class="st5" points="230.9,322.7 241.1,316.8 241.1,312.6 230.9,318.5 		"/>
		<polygon class="st6" points="217.1,330.7 227.3,324.8 227.3,320.5 217.1,326.4 		"/>
		<polygon class="st5" points="203.3,338.6 213.5,332.8 213.5,328.5 203.3,334.4 		"/>
		<polygon class="st4" points="244.3,327.2 186.1,360.7 186.1,374 244.3,340.5 		"/>
		<line class="st4" x1="198.2" y1="354" x2="198.2" y2="367.3"/>
		<polygon class="st4" points="230.9,343.9 241.1,338.1 241.1,333.8 230.9,339.7 		"/>
		<polygon class="st5" points="217.1,351.9 227.3,346 227.3,341.8 217.1,347.7 		"/>
		<polygon class="st4" points="203.3,359.9 213.5,354 213.5,349.7 203.3,355.6 		"/>
		<line class="st0" x1="185" y1="382.6" x2="185" y2="391.9"/>
		<line class="st0" x1="190.5" y1="379.4" x2="190.5" y2="388.8"/>
		<line class="st0" x1="196" y1="376.3" x2="196" y2="385.6"/>
		<line class="st0" x1="201.5" y1="373.1" x2="201.5" y2="382.4"/>
		<line class="st0" x1="207" y1="370" x2="207" y2="379.3"/>
		<line class="st0" x1="212.4" y1="366.8" x2="212.4" y2="376.1"/>
		<line class="st0" x1="217.9" y1="363.6" x2="217.9" y2="372.9"/>
		<line class="st0" x1="223.4" y1="360.6" x2="223.4" y2="369.8"/>
		<line class="st0" x1="228.9" y1="357.4" x2="228.9" y2="366.6"/>
		<line class="st0" x1="234.4" y1="354.1" x2="234.4" y2="363.5"/>
		<line class="st0" x1="239.9" y1="351.1" x2="239.9" y2="360.3"/>
		<line class="st0" x1="245.3" y1="347.9" x2="245.3" y2="357.2"/>
		<line class="st0" x1="241.6" y1="189" x2="241.6" y2="194.9"/>
		<line class="st0" x1="189.8" y1="218.7" x2="189.8" y2="225.1"/>
		<line class="st0" x1="249.8" y1="345.3" x2="180.7" y2="385.1"/>
	</g>
	<g>
		<polygon class="st3" points="501.8,178.7 500.7,178.7 433,139.7 365.3,178.7 364.2,178.7 364.2,354.7 433,394.3 501.8,354.7 		"/>
		<polygon class="st0" points="433,217.7 365.3,178.7 433,139.7 500.7,178.7 		"/>
		
			<ellipse transform="matrix(0.9989 -4.609304e-02 4.609304e-02 0.9989 -7.6622 18.8963)" class="st0" cx="405.9" cy="175.6" rx="11" ry="6.4"/>
		
			<ellipse transform="matrix(0.9989 -4.609304e-02 4.609304e-02 0.9989 -6.9757 20.0065)" class="st0" cx="430.3" cy="161.3" rx="11" ry="6.4"/>
		<polyline class="st0" points="501.8,178.7 501.8,354.7 433,394.3 364.2,354.7 364.2,178.7 		"/>
		<line class="st0" x1="433" y1="217.7" x2="433" y2="394.3"/>
		<polygon class="st4" points="496.5,199.8 438.3,233.3 438.3,246.6 496.5,213.1 		"/>
		<line class="st0" x1="502" y1="184.5" x2="432.9" y2="224.3"/>
		<line class="st0" x1="502" y1="190.3" x2="432.9" y2="230.1"/>
		<line class="st4" x1="450.4" y1="226.6" x2="450.4" y2="240"/>
		<polygon class="st5" points="483.1,216.6 493.3,210.7 493.3,206.4 483.1,212.3 		"/>
		<polygon class="st4" points="469.3,224.5 479.5,218.6 479.5,214.4 469.3,220.3 		"/>
		<polygon class="st5" points="455.5,232.5 465.7,226.6 465.7,222.4 455.5,228.2 		"/>
		<polygon class="st5" points="496.5,221.1 438.3,254.5 438.3,267.8 496.5,234.3 		"/>
		<line class="st5" x1="450.4" y1="247.9" x2="450.4" y2="261.2"/>
		<polygon class="st5" points="483.1,237.8 493.3,231.9 493.3,227.7 483.1,233.5 		"/>
		<polygon class="st6" points="469.3,245.7 479.5,239.9 479.5,235.6 469.3,241.5 		"/>
		<polygon class="st5" points="455.5,253.7 465.7,247.8 465.7,243.6 455.5,249.5 		"/>
		<polygon class="st4" points="496.5,242.3 438.3,275.8 438.3,289 496.5,255.6 		"/>
		<line class="st4" x1="450.4" y1="269.1" x2="450.4" y2="282.4"/>
		<polygon class="st4" points="483.1,259 493.3,253.1 493.3,248.9 483.1,254.8 		"/>
		<polygon class="st5" points="469.3,267 479.5,261.1 479.5,256.9 469.3,262.7 		"/>
		<polygon class="st4" points="455.5,274.9 465.7,269.1 465.7,264.8 455.5,270.7 		"/>
		<polygon class="st5" points="496.5,263.5 438.3,297 438.3,310.3 496.5,276.8 		"/>
		<line class="st5" x1="450.4" y1="290.3" x2="450.4" y2="303.7"/>
		<polygon class="st6" points="483.1,280.2 493.3,274.4 493.3,270.1 483.1,276 		"/>
		<polygon class="st5" points="469.3,288.2 479.5,282.3 479.5,278.1 469.3,284 		"/>
		<polygon class="st6" points="455.5,296.2 465.7,290.3 465.7,286 455.5,291.9 		"/>
		<polygon class="st4" points="496.5,284.7 438.3,318.2 438.3,331.5 496.5,298 		"/>
		<line class="st4" x1="450.4" y1="311.6" x2="450.4" y2="324.9"/>
		<polygon class="st5" points="483.1,301.5 493.3,295.6 493.3,291.4 483.1,297.2 		"/>
		<polygon class="st4" points="469.3,309.4 479.5,303.6 479.5,299.3 469.3,305.2 		"/>
		<polygon class="st5" points="455.5,317.4 465.7,311.5 465.7,307.3 455.5,313.2 		"/>
		<polygon class="st5" points="496.5,306 438.3,339.5 438.3,352.7 496.5,319.2 		"/>
		<line class="st5" x1="450.4" y1="332.8" x2="450.4" y2="346.1"/>
		<polygon class="st5" points="483.1,322.7 493.3,316.8 493.3,312.6 483.1,318.5 		"/>
		<polygon class="st6" points="469.3,330.7 479.5,324.8 479.5,320.5 469.3,326.4 		"/>
		<polygon class="st5" points="455.5,338.6 465.7,332.8 465.7,328.5 455.5,334.4 		"/>
		<polygon class="st4" points="496.5,327.2 438.3,360.7 438.3,374 496.5,340.5 		"/>
		<line class="st4" x1="450.4" y1="354" x2="450.4" y2="367.3"/>
		<polygon class="st4" points="483.1,343.9 493.3,338.1 493.3,333.8 483.1,339.7 		"/>
		<polygon class="st5" points="469.3,351.9 479.5,346 479.5,341.8 469.3,347.7 		"/>
		<polygon class="st4" points="455.5,359.9 465.7,354 465.7,349.7 455.5,355.6 		"/>
		<line class="st0" x1="437.2" y1="382.6" x2="437.2" y2="391.9"/>
		<line class="st0" x1="442.7" y1="379.4" x2="442.7" y2="388.8"/>
		<line class="st0" x1="448.2" y1="376.3" x2="448.2" y2="385.6"/>
		<line class="st0" x1="453.7" y1="373.1" x2="453.7" y2="382.4"/>
		<line class="st0" x1="459.2" y1="370" x2="459.2" y2="379.3"/>
		<line class="st0" x1="464.6" y1="366.8" x2="464.6" y2="376.1"/>
		<line class="st0" x1="470.1" y1="363.6" x2="470.1" y2="372.9"/>
		<line class="st0" x1="475.6" y1="360.6" x2="475.6" y2="369.8"/>
		<line class="st0" x1="481.1" y1="357.4" x2="481.1" y2="366.6"/>
		<line class="st0" x1="486.6" y1="354.1" x2="486.6" y2="363.5"/>
		<line class="st0" x1="492" y1="351.1" x2="492" y2="360.3"/>
		<line class="st0" x1="497.5" y1="347.9" x2="497.5" y2="357.2"/>
		<line class="st0" x1="493.8" y1="189" x2="493.8" y2="194.9"/>
		<line class="st0" x1="442" y1="218.7" x2="442" y2="225.1"/>
		<line class="st0" x1="502" y1="345.3" x2="432.9" y2="385.1"/>
	</g>
	<g>
		<polygon class="st3" points="375.7,258.3 374.6,258.3 306.9,219.4 239.2,258.3 238.1,258.3 238.1,434.3 306.9,473.9 375.7,434.3 
					"/>
		<polygon class="st1" points="306.9,297.3 239.2,258.3 306.9,219.4 374.6,258.3 		"/>
		
			<ellipse transform="matrix(0.9989 -4.609304e-02 4.609304e-02 0.9989 -11.4659 13.1688)" class="st1" cx="279.8" cy="255.2" rx="11" ry="6.4"/>
		
			<ellipse transform="matrix(0.9989 -4.609304e-02 4.609304e-02 0.9989 -10.7794 14.2789)" class="st1" cx="304.2" cy="240.9" rx="11" ry="6.4"/>
		<polyline class="st1" points="375.7,258.3 375.7,434.3 306.9,473.9 238.1,434.3 238.1,258.3 		"/>
		<line class="st1" x1="306.9" y1="297.3" x2="306.9" y2="473.9"/>
		<polygon class="st4" points="370.4,279.4 312.2,312.9 312.2,326.2 370.4,292.7 		"/>
		<line class="st1" x1="375.9" y1="264.1" x2="306.8" y2="303.9"/>
		<line class="st1" x1="375.9" y1="269.9" x2="306.8" y2="309.7"/>
		<line class="st4" x1="324.3" y1="306.3" x2="324.3" y2="319.6"/>
		<polygon class="st5" points="357,296.2 367.2,290.3 367.2,286 357,291.9 		"/>
		<polygon class="st4" points="343.2,304.1 353.4,298.3 353.4,294 343.2,299.9 		"/>
		<polygon class="st5" points="329.4,312.1 339.6,306.2 339.6,302 329.4,307.8 		"/>
		<polygon class="st5" points="370.4,300.7 312.2,334.2 312.2,347.4 370.4,313.9 		"/>
		<line class="st5" x1="324.3" y1="327.5" x2="324.3" y2="340.8"/>
		<polygon class="st5" points="357,317.4 367.2,311.5 367.2,307.3 357,313.2 		"/>
		<polygon class="st6" points="343.2,325.4 353.4,319.5 353.4,315.2 343.2,321.1 		"/>
		<polygon class="st5" points="329.4,333.3 339.6,327.4 339.6,323.2 329.4,329.1 		"/>
		<polygon class="st4" points="370.4,321.9 312.2,355.4 312.2,368.7 370.4,335.2 		"/>
		<line class="st4" x1="324.3" y1="348.7" x2="324.3" y2="362"/>
		<polygon class="st4" points="357,338.6 367.2,332.8 367.2,328.5 357,334.4 		"/>
		<polygon class="st5" points="343.2,346.6 353.4,340.7 353.4,336.5 343.2,342.3 		"/>
		<polygon class="st4" points="329.4,354.6 339.6,348.7 339.6,344.4 329.4,350.3 		"/>
		<polygon class="st5" points="370.4,343.1 312.2,376.6 312.2,389.9 370.4,356.4 		"/>
		<line class="st5" x1="324.3" y1="369.9" x2="324.3" y2="383.3"/>
		<polygon class="st6" points="357,359.9 367.2,354 367.2,349.7 357,355.6 		"/>
		<polygon class="st5" points="343.2,367.8 353.4,361.9 353.4,357.7 343.2,363.6 		"/>
		<polygon class="st6" points="329.4,375.8 339.6,369.9 339.6,365.7 329.4,371.5 		"/>
		<polygon class="st4" points="370.4,364.4 312.2,397.8 312.2,411.1 370.4,377.6 		"/>
		<line class="st4" x1="324.3" y1="391.2" x2="324.3" y2="404.5"/>
		<polygon class="st5" points="357,381.1 367.2,375.2 367.2,371 357,376.8 		"/>
		<polygon class="st4" points="343.2,389 353.4,383.2 353.4,378.9 343.2,384.8 		"/>
		<polygon class="st5" points="329.4,397 339.6,391.1 339.6,386.9 329.4,392.8 		"/>
		<polygon class="st5" points="370.4,385.6 312.2,419.1 312.2,432.3 370.4,398.9 		"/>
		<line class="st5" x1="324.3" y1="412.4" x2="324.3" y2="425.7"/>
		<polygon class="st5" points="357,402.3 367.2,396.4 367.2,392.2 357,398.1 		"/>
		<polygon class="st6" points="343.2,410.3 353.4,404.4 353.4,400.2 343.2,406 		"/>
		<polygon class="st5" points="329.4,418.2 339.6,412.4 339.6,408.1 329.4,414 		"/>
		<polygon class="st4" points="370.4,406.8 312.2,440.3 312.2,453.6 370.4,420.1 		"/>
		<line class="st4" x1="324.3" y1="433.6" x2="324.3" y2="447"/>
		<polygon class="st4" points="357,423.5 367.2,417.7 367.2,413.4 357,419.3 		"/>
		<polygon class="st5" points="343.2,431.5 353.4,425.6 353.4,421.4 343.2,427.3 		"/>
		<polygon class="st4" points="329.4,439.5 339.6,433.6 339.6,429.4 329.4,435.2 		"/>
		<line class="st1" x1="311.1" y1="462.2" x2="311.1" y2="471.5"/>
		<line class="st1" x1="316.6" y1="459" x2="316.6" y2="468.4"/>
		<line class="st1" x1="322.1" y1="455.9" x2="322.1" y2="465.2"/>
		<line class="st1" x1="327.6" y1="452.7" x2="327.6" y2="462"/>
		<line class="st1" x1="333.1" y1="449.6" x2="333.1" y2="458.9"/>
		<line class="st1" x1="338.5" y1="446.4" x2="338.5" y2="455.7"/>
		<line class="st1" x1="344" y1="443.2" x2="344" y2="452.5"/>
		<line class="st1" x1="349.5" y1="440.2" x2="349.5" y2="449.4"/>
		<line class="st1" x1="355" y1="437" x2="355" y2="446.2"/>
		<line class="st1" x1="360.5" y1="433.7" x2="360.5" y2="443.1"/>
		<line class="st1" x1="365.9" y1="430.7" x2="365.9" y2="439.9"/>
		<line class="st1" x1="371.4" y1="427.5" x2="371.4" y2="436.8"/>
		<line class="st1" x1="367.7" y1="268.6" x2="367.7" y2="274.5"/>
		<line class="st1" x1="315.9" y1="298.3" x2="315.9" y2="304.7"/>
		<line class="st1" x1="375.9" y1="424.9" x2="306.8" y2="464.7"/>
	</g>
</g>
</svg>
